<?xml version="1.0" encoding="utf-8"?>
<svg viewBox="0 0 82.958 82.971" xmlns="http://www.w3.org/2000/svg">
  <g id="SvgjsG2183" transform="matrix(1.478571, 0, 0, 1.478571, -5.771795, -5.815836)" fill="#5C5ABC">
    <title xmlns="http://www.w3.org/2000/svg">Shutter</title>
    <g xmlns="http://www.w3.org/2000/svg" fill="#5C5ABC">
      <path d="M52.64,4H11.36A7.36,7.36,0,0,0,4,11.36V52.64A7.36,7.36,0,0,0,11.36,60H52.64A7.36,7.36,0,0,0,60,52.64V11.36A7.36,7.36,0,0,0,52.64,4ZM16.79,45a1.7,1.7,0,0,1-.09,2.31l-.39.39a1.75,1.75,0,0,1-2.55-.09,24,24,0,0,1,0-31.2,1.75,1.75,0,0,1,2.55-.09l.39.39A1.7,1.7,0,0,1,16.79,19a20,20,0,0,0,0,26ZM32,44.08A12,12,0,1,1,44,32,12,12,0,0,1,32,44.08ZM50.24,47.6a1.75,1.75,0,0,1-2.55.09l-.39-.39A1.7,1.7,0,0,1,47.21,45a20,20,0,0,0,0-26,1.7,1.7,0,0,1,.09-2.31l.39-.39a1.75,1.75,0,0,1,2.55.09,24,24,0,0,1,0,31.2Z" fill="#5C5ABC"/>
    </g>
  </g>
</svg>