<svg xmlns:xlink="http://www.w3.org/1999/xlink" xmlns="http://www.w3.org/2000/svg" width="250" height="148.20410158396857" viewBox="0 0 250 148.20410158396857" class="css-1j8o68f"><defs id="SvgjsDefs2182"></defs><g id="SvgjsG2183" transform="matrix(1.4785714285714286,0,0,1.4785714285714286,78.08571428571429,-5.914285714285715)" fill="#5C5ABC"><title xmlns="http://www.w3.org/2000/svg">Shutter</title><g xmlns="http://www.w3.org/2000/svg" fill="#5C5ABC"><path d="M52.64,4H11.36A7.36,7.36,0,0,0,4,11.36V52.64A7.36,7.36,0,0,0,11.36,60H52.64A7.36,7.36,0,0,0,60,52.64V11.36A7.36,7.36,0,0,0,52.64,4ZM16.79,45a1.7,1.7,0,0,1-.09,2.31l-.39.39a1.75,1.75,0,0,1-2.55-.09,24,24,0,0,1,0-31.2,1.75,1.75,0,0,1,2.55-.09l.39.39A1.7,1.7,0,0,1,16.79,19a20,20,0,0,0,0,26ZM32,44.08A12,12,0,1,1,44,32,12,12,0,0,1,32,44.08ZM50.24,47.6a1.75,1.75,0,0,1-2.55.09l-.39-.39A1.7,1.7,0,0,1,47.21,45a20,20,0,0,0,0-26,1.7,1.7,0,0,1,.09-2.31l.39-.39a1.75,1.75,0,0,1,2.55.09,24,24,0,0,1,0,31.2Z" fill="#5C5ABC"></path></g></g><g id="SvgjsG2184" transform="matrix(1.0211751105270601,0,0,1.0211751105270601,-3.0635248446469427,92.13469549953095)" fill="#FFFFFF"><path d="M8.32 40 l-5.32 0 l0 -28.48 l10.2 0 c1.96 0 3.8 0.76 5.2 2.16 c1.36 1.4 2.16 3.2 2.16 5.16 c0 4.04 -3.32 7.28 -7.36 7.28 l-4.88 0 l0 13.88 z M8.32 20.88 l4.88 0 c1.12 0 2 -0.92 2 -2.04 s-0.92 -2.08 -2 -2.08 l-4.88 0 l0 4.12 z M48.007000000000005 40 l-5.36 0 l0 -13.8 l-11.56 0 l0 13.8 l-5.36 0 l0 -28.48 l5.36 0 l0 9.44 l11.56 0 l0 -9.44 l5.36 0 l0 28.48 z M67.654 40.4 c-8.2 0 -14.88 -6.64 -14.88 -14.84 c0 -8.24 6.68 -14.92 14.88 -14.92 c8.24 0 14.92 6.68 14.92 14.92 c0 8.2 -6.68 14.84 -14.92 14.84 z M67.654 15.96 c-5.24 0 -9.52 4.28 -9.52 9.6 c0 5.28 4.28 9.56 9.52 9.56 s9.52 -4.28 9.52 -9.56 c0 -5.32 -4.28 -9.6 -9.52 -9.6 z M98.18100000000001 40 l-5.36 0 l0 -23.2 l-7 0 l0 -5.28 l19.36 0 l0 5.28 l-7 0 l0 23.2 z M122.468 40.4 c-8.2 0 -14.88 -6.64 -14.88 -14.84 c0 -8.24 6.68 -14.92 14.88 -14.92 c8.24 0 14.92 6.68 14.92 14.92 c0 8.2 -6.68 14.84 -14.92 14.84 z M122.468 15.96 c-5.24 0 -9.52 4.28 -9.52 9.6 c0 5.28 4.28 9.56 9.52 9.56 s9.52 -4.28 9.52 -9.56 c0 -5.32 -4.28 -9.6 -9.52 -9.6 z M164.835 40 l-5.36 0 l0 -13.8 l-11.56 0 l0 13.8 l-5.36 0 l0 -28.48 l5.36 0 l0 9.44 l11.56 0 l0 -9.44 l5.36 0 l0 28.48 z M184.48200000000003 40.4 c-8.2 0 -14.88 -6.64 -14.88 -14.84 c0 -8.24 6.68 -14.92 14.88 -14.92 c8.24 0 14.92 6.68 14.92 14.92 c0 8.2 -6.68 14.84 -14.92 14.84 z M184.48200000000003 15.96 c-5.24 0 -9.52 4.28 -9.52 9.6 c0 5.28 4.28 9.56 9.52 9.56 s9.52 -4.28 9.52 -9.56 c0 -5.32 -4.28 -9.6 -9.52 -9.6 z M214.80900000000003 40.24 c-0.92 0 -1.88 -0.12 -2.88 -0.32 c-2.96 -0.6 -5.84 -2.04 -8.36 -4.24 l-0.76 -0.68 l3.52 -4 l0.76 0.68 c1.84 1.6 3.88 2.68 5.88 3.08 l0.04 0 c0.6 0.12 1.2 0.2 1.8 0.2 c1 0 1.92 -0.2 2.68 -0.56 c0.96 -0.4 2.08 -1.28 2.08 -2.92 c0 -0.88 -0.44 -1.56 -1.36 -2.12 c-1.12 -0.68 -2.64 -1.04 -3.72 -1.24 c-0.48 -0.08 -4.56 -0.92 -6.44 -1.96 c-1.24 -0.76 -2.2 -1.72 -2.88 -2.84 c-0.68 -1.16 -1 -2.44 -1 -3.84 c0 -1.52 0.48 -3.04 1.4 -4.44 c0.88 -1.16 2.08 -2.12 3.52 -2.8 s3.04 -1.04 4.76 -1.04 c0.68 0 1.4 0.08 2.12 0.16 c2.64 0.48 5.24 1.68 7.52 3.6 l0.76 0.64 l-3.4 4.12 l-0.76 -0.64 c-2.6 -2.12 -4.84 -2.6 -6.28 -2.6 c-0.92 0 -1.76 0.2 -2.48 0.52 c-1.12 0.52 -1.84 1.48 -1.84 2.44 c0 0.88 0.32 1.44 1.08 1.96 s1.92 0.92 3.76 1.32 c0.24 0.04 0.56 0.12 0.88 0.2 c1.68 0.32 3.92 0.8 5.48 1.72 c1.36 0.72 2.4 1.72 3.12 2.88 s1.08 2.52 1.08 3.96 c0 1.8 -0.48 3.4 -1.44 4.76 c-0.84 1.16 -2.08 2.16 -3.72 2.96 c-1.4 0.72 -2.96 1.04 -4.92 1.04 z M240.816 40 l-5.36 0 l0 -23.2 l-7 0 l0 -5.28 l19.36 0 l0 5.28 l-7 0 l0 23.2 z" fill="#5C5ABC"></path></g></svg>
