<svg width="200" height="144.385605584152" viewBox="0 0 200 144.385605584152" class="css-1j8o68f"><defs id="SvgjsDefs2066"></defs><g id="SvgjsG2067" featurekey="ZxbabI-0" transform="matrix(4.360337996720232,0,0,4.360337996720232,50,0)" fill="#222831"><defs xmlns="http://www.w3.org/2000/svg"></defs><g xmlns="http://www.w3.org/2000/svg"><path class="fil0" d="M11.566 10.3752c0.4383,0 0.7937,0.3554 0.7937,0.7937 0,0.4383 -0.3554,0.7937 -0.7937,0.7937 -0.4383,0 -0.7937,-0.3554 -0.7937,-0.7937 0,-0.4383 0.3554,-0.7937 0.7937,-0.7937z" style="fill: #222831; fill-rule: nonzero;"></path><path class="fil0" d="M11.3127 2.7875l-0.7058 5.7825 8.1943 -1.7492c-1.6264,-2.5625 -4.4538,-4.0865 -7.4885,-4.0333z" style="fill: #222831; fill-rule: nonzero;"></path><path class="fil0" d="M3.9587 7.1073l4.665 3.6854 2.56 -8.002c-3.001,0.0963 -5.722,1.7336 -7.225,4.3166z" style="fill: #222831; fill-rule: nonzero;"></path><path class="fil0" d="M4.089 16.0435l5.3948 -2.3538 -5.5642 -6.5145c-1.5636,2.7439 -1.4981,6.1853 0.1694,8.8683z" style="fill: #222831; fill-rule: nonzero;"></path><path class="fil0" d="M11.6212 20.1465l0.7059 -5.7826 -8.1944 1.7491c1.627,2.5626 4.4532,4.0868 7.4885,4.0335z" style="fill: #222831; fill-rule: nonzero;"></path><path class="fil0" d="M18.9754 15.8265l-4.6651 -3.6855 -2.5601 8.0023c3.0017,-0.0963 5.7216,-1.7336 7.2252,-4.3168z" style="fill: #222831; fill-rule: nonzero;"></path><path class="fil0" d="M18.8449 6.8903l-5.3947 2.3537 5.5643 6.5146c1.5633,-2.7439 1.4982,-6.1855 -0.1696,-8.8683z" style="fill: #222831; fill-rule: nonzero;"></path><path class="fil0" d="M11.467 0c6.3326,0 11.467,5.1344 11.467,11.467 0,6.3326 -5.1344,11.467 -11.467,11.467 -6.3326,0 -11.467,-5.1344 -11.467,-11.467 0,-6.3326 5.1344,-11.467 11.467,-11.467zm0 2.032c-5.2111,0 -9.435,4.2239 -9.435,9.435 0,5.2111 4.2239,9.435 9.435,9.435 5.2111,0 9.435,-4.2239 9.435,-9.435 0,-5.2111 -4.2239,-9.435 -9.435,-9.435z" style="fill: #222831; fill-rule: nonzero;"></path></g></g><g id="SvgjsG2068" featurekey="91VAEh-0" transform="matrix(1.6064254074846613,0,0,1.6064254074846613,-3.148560921807177,112.25706449631573)" fill="#222831"><path d="M10.22 8.94 c0 0.57334 -0.11 1.11 -0.33 1.61 s-0.51666 0.93666 -0.89 1.31 s-0.81 0.66668 -1.31 0.88002 s-1.0367 0.32 -1.61 0.32 l-2.94 0 l0 6.36 c0 0.16 -0.05666 0.29666 -0.17 0.41 s-0.25 0.17 -0.41 0.17 c-0.17334 0 -0.31668 -0.05666 -0.43002 -0.17 s-0.17 -0.25 -0.17 -0.41 l0 -14.02 c0 -0.16 0.05666 -0.29666 0.17 -0.41 s0.25668 -0.17 0.43002 -0.17 l3.52 0 c0.57334 0 1.11 0.10666 1.61 0.32 s0.93666 0.50668 1.31 0.88002 s0.67 0.81 0.89 1.31 s0.33 1.0367 0.33 1.61 z M9.04 8.94 c0 -0.4 -0.07666 -0.77998 -0.23 -1.14 s-0.36334 -0.67666 -0.63 -0.95 s-0.58 -0.48668 -0.94 -0.64002 s-0.74666 -0.23 -1.16 -0.23 l-2.94 0 l0 5.9 l2.94 0 c0.41334 0 0.8 -0.07666 1.16 -0.23 s0.67334 -0.36334 0.94 -0.63 s0.47666 -0.58 0.63 -0.94 s0.23 -0.74 0.23 -1.14 z M23.64 19.42 c0 0.16 -0.06 0.29666 -0.18 0.41 s-0.26 0.17 -0.42 0.17 s-0.29666 -0.05666 -0.41 -0.17 s-0.17 -0.25 -0.17 -0.41 l0 -7.08 l-8.46 0 l0 7.08 c0 0.16 -0.05666 0.29666 -0.17 0.41 s-0.25 0.17 -0.41 0.17 c-0.17334 0 -0.31668 -0.05666 -0.43002 -0.17 s-0.17 -0.25 -0.17 -0.41 l0 -14.02 c0 -0.16 0.05666 -0.29666 0.17 -0.41 s0.25668 -0.17 0.43002 -0.17 c0.16 0 0.29666 0.05666 0.41 0.17 s0.17 0.25 0.17 0.41 l0 5.76 l8.46 0 l0 -5.76 c0 -0.16 0.05666 -0.29666 0.17 -0.41 s0.25 -0.17 0.41 -0.17 s0.3 0.05666 0.42 0.17 s0.18 0.25 0.18 0.41 l0 14.02 z M42.3 12.4 c0 1.0533 -0.2 2.04 -0.6 2.96 s-0.94334 1.7233 -1.63 2.41 s-1.49 1.23 -2.41 1.63 s-1.9 0.6 -2.94 0.6 c-1.0533 0 -2.04 -0.2 -2.96 -0.6 s-1.7233 -0.94334 -2.41 -1.63 s-1.23 -1.49 -1.63 -2.41 s-0.6 -1.9067 -0.6 -2.96 c0 -1.04 0.2 -2.02 0.6 -2.94 s0.94334 -1.7233 1.63 -2.41 s1.49 -1.23 2.41 -1.63 s1.9067 -0.6 2.96 -0.6 c1.04 0 2.02 0.2 2.94 0.6 s1.7233 0.94334 2.41 1.63 s1.23 1.49 1.63 2.41 s0.6 1.9 0.6 2.94 z M41.14 12.4 c0 -0.88 -0.17 -1.71 -0.51 -2.49 s-0.8 -1.46 -1.38 -2.04 s-1.26 -1.04 -2.04 -1.38 s-1.61 -0.51 -2.49 -0.51 s-1.7133 0.17 -2.5 0.51 s-1.47 0.8 -2.05 1.38 s-1.04 1.26 -1.38 2.04 s-0.51 1.61 -0.51 2.49 c0 0.89334 0.17 1.73 0.51 2.51 s0.8 1.46 1.38 2.04 s1.2633 1.04 2.05 1.38 s1.62 0.51 2.5 0.51 s1.71 -0.17 2.49 -0.51 s1.46 -0.8 2.04 -1.38 s1.04 -1.26 1.38 -2.04 s0.51 -1.6167 0.51 -2.51 z M53.68000000000001 5.4 c0 0.16 -0.05664 0.29666 -0.16998 0.41 s-0.25 0.17 -0.41 0.17 l-3.54 0 l0 13.44 c0 0.16 -0.05666 0.29666 -0.17 0.41 s-0.25 0.17 -0.41 0.17 c-0.17334 0 -0.31668 -0.05666 -0.43002 -0.17 s-0.17 -0.25 -0.17 -0.41 l0 -13.44 l-3.54 0 c-0.16 0 -0.29666 -0.05666 -0.41 -0.17 s-0.17 -0.25 -0.17 -0.41 s0.05666 -0.29666 0.17 -0.41 s0.25 -0.17 0.41 -0.17 l8.26 0 c0.16 0 0.29666 0.05666 0.41 0.17 s0.17 0.25 0.17 0.41 z M70.8 12.4 c0 1.0533 -0.2 2.04 -0.6 2.96 s-0.94334 1.7233 -1.63 2.41 s-1.49 1.23 -2.41 1.63 s-1.9 0.6 -2.94 0.6 c-1.0533 0 -2.04 -0.2 -2.96 -0.6 s-1.7233 -0.94334 -2.41 -1.63 s-1.23 -1.49 -1.63 -2.41 s-0.6 -1.9067 -0.6 -2.96 c0 -1.04 0.2 -2.02 0.6 -2.94 s0.94334 -1.7233 1.63 -2.41 s1.49 -1.23 2.41 -1.63 s1.9067 -0.6 2.96 -0.6 c1.04 0 2.02 0.2 2.94 0.6 s1.7233 0.94334 2.41 1.63 s1.23 1.49 1.63 2.41 s0.6 1.9 0.6 2.94 z M69.64 12.4 c0 -0.88 -0.17 -1.71 -0.51 -2.49 s-0.8 -1.46 -1.38 -2.04 s-1.26 -1.04 -2.04 -1.38 s-1.61 -0.51 -2.49 -0.51 s-1.7133 0.17 -2.5 0.51 s-1.47 0.8 -2.05 1.38 s-1.04 1.26 -1.38 2.04 s-0.51 1.61 -0.51 2.49 c0 0.89334 0.17 1.73 0.51 2.51 s0.8 1.46 1.38 2.04 s1.2633 1.04 2.05 1.38 s1.62 0.51 2.5 0.51 s1.71 -0.17 2.49 -0.51 s1.46 -0.8 2.04 -1.38 s1.04 -1.26 1.38 -2.04 s0.51 -1.6167 0.51 -2.51 z M85.12 19.42 c0 0.16 -0.06 0.29666 -0.18 0.41 s-0.26 0.17 -0.42 0.17 s-0.29666 -0.05666 -0.41 -0.17 s-0.17 -0.25 -0.17 -0.41 l0 -7.08 l-8.46 0 l0 7.08 c0 0.16 -0.05666 0.29666 -0.17 0.41 s-0.25 0.17 -0.41 0.17 c-0.17334 0 -0.31668 -0.05666 -0.43002 -0.17 s-0.17 -0.25 -0.17 -0.41 l0 -14.02 c0 -0.16 0.05666 -0.29666 0.17 -0.41 s0.25668 -0.17 0.43002 -0.17 c0.16 0 0.29666 0.05666 0.41 0.17 s0.17 0.25 0.17 0.41 l0 5.76 l8.46 0 l0 -5.76 c0 -0.16 0.05666 -0.29666 0.17 -0.41 s0.25 -0.17 0.41 -0.17 s0.3 0.05666 0.42 0.17 s0.18 0.25 0.18 0.41 l0 14.02 z M103.78 12.4 c0 1.0533 -0.2 2.04 -0.6 2.96 s-0.94334 1.7233 -1.63 2.41 s-1.49 1.23 -2.41 1.63 s-1.9 0.6 -2.94 0.6 c-1.0533 0 -2.04 -0.2 -2.96 -0.6 s-1.7233 -0.94334 -2.41 -1.63 s-1.23 -1.49 -1.63 -2.41 s-0.6 -1.9067 -0.6 -2.96 c0 -1.04 0.2 -2.02 0.6 -2.94 s0.94334 -1.7233 1.63 -2.41 s1.49 -1.23 2.41 -1.63 s1.9067 -0.6 2.96 -0.6 c1.04 0 2.02 0.2 2.94 0.6 s1.7233 0.94334 2.41 1.63 s1.23 1.49 1.63 2.41 s0.6 1.9 0.6 2.94 z M102.62 12.4 c0 -0.88 -0.17 -1.71 -0.51 -2.49 s-0.8 -1.46 -1.38 -2.04 s-1.26 -1.04 -2.04 -1.38 s-1.61 -0.51 -2.49 -0.51 s-1.7133 0.17 -2.5 0.51 s-1.47 0.8 -2.05 1.38 s-1.04 1.26 -1.38 2.04 s-0.51 1.61 -0.51 2.49 c0 0.89334 0.17 1.73 0.51 2.51 s0.8 1.46 1.38 2.04 s1.2633 1.04 2.05 1.38 s1.62 0.51 2.5 0.51 s1.71 -0.17 2.49 -0.51 s1.46 -0.8 2.04 -1.38 s1.04 -1.26 1.38 -2.04 s0.51 -1.6167 0.51 -2.51 z M115.1 15.879999999999999 c0 0.56 -0.11002 1.09 -0.33002 1.59 s-0.51666 0.93666 -0.89 1.31 s-0.81 0.67 -1.31 0.89 s-1.0367 0.33 -1.61 0.33 c-0.56 0 -1.09 -0.11 -1.59 -0.33 s-0.93666 -0.51666 -1.31 -0.89 s-0.67 -0.81 -0.89 -1.31 s-0.33 -1.03 -0.33 -1.59 c0 -0.16 0.05666 -0.3 0.17 -0.42 s0.25668 -0.18 0.43002 -0.18 c0.16 0 0.29666 0.06 0.41 0.18 s0.17 0.26 0.17 0.42 c0 0.4 0.07666 0.78 0.23 1.14 s0.36334 0.67334 0.63 0.94 s0.58 0.47666 0.94 0.63 s0.74 0.23 1.14 0.23 s0.78 -0.07666 1.14 -0.23 s0.67666 -0.36334 0.95 -0.63 s0.48668 -0.58 0.64002 -0.94 s0.23 -0.74 0.23 -1.14 c0 -0.65334 -0.17334 -1.17 -0.52 -1.55 s-0.78332 -0.69334 -1.31 -0.94 s-1.0967 -0.46666 -1.71 -0.66 s-1.1833 -0.44 -1.71 -0.74 s-0.96332 -0.68334 -1.31 -1.15 s-0.52 -1.1 -0.52 -1.9 c0 -0.57334 0.11 -1.11 0.33 -1.61 s0.51666 -0.93666 0.89 -1.31 s0.81 -0.66668 1.31 -0.88002 s1.03 -0.32 1.59 -0.32 c0.57334 0 1.11 0.10666 1.61 0.32 s0.93666 0.50668 1.31 0.88002 s0.67 0.81 0.89 1.31 s0.33 1.0367 0.33 1.61 c0 0.16 -0.06 0.29666 -0.18 0.41 s-0.26 0.17 -0.42 0.17 s-0.29666 -0.05666 -0.41 -0.17 s-0.17 -0.25 -0.17 -0.41 c0 -0.4 -0.07666 -0.78 -0.23 -1.14 s-0.36668 -0.67666 -0.64002 -0.95 s-0.59 -0.48668 -0.95 -0.64002 s-0.74 -0.23 -1.14 -0.23 s-0.78 0.07666 -1.14 0.23 s-0.67334 0.36668 -0.94 0.64002 s-0.47666 0.59 -0.63 0.95 s-0.23 0.74 -0.23 1.14 c0 0.62666 0.17334 1.1133 0.52 1.46 s0.78332 0.64 1.31 0.88 s1.0967 0.46 1.71 0.66 s1.1833 0.45334 1.71 0.76 s0.96332 0.70666 1.31 1.2 s0.52 1.1533 0.52 1.98 z M126.46 5.4 c0 0.16 -0.05664 0.29666 -0.16998 0.41 s-0.25 0.17 -0.41 0.17 l-3.54 0 l0 13.44 c0 0.16 -0.05666 0.29666 -0.17 0.41 s-0.25 0.17 -0.41 0.17 c-0.17334 0 -0.31668 -0.05666 -0.43002 -0.17 s-0.17 -0.25 -0.17 -0.41 l0 -13.44 l-3.54 0 c-0.16 0 -0.29666 -0.05666 -0.41 -0.17 s-0.17 -0.25 -0.17 -0.41 s0.05666 -0.29666 0.17 -0.41 s0.25 -0.17 0.41 -0.17 l8.26 0 c0.16 0 0.29666 0.05666 0.41 0.17 s0.17 0.25 0.17 0.41 z"></path></g></svg>